<svg data-v-fde0c5aa="" xmlns="http://www.w3.org/2000/svg" viewBox="0 0 300 300" class="iconLeft"><!----><defs data-v-fde0c5aa=""><!----></defs><rect data-v-fde0c5aa="" fill="transparent" x="0" y="0" width="300px" height="300px" class="logo-background-square"></rect><defs data-v-fde0c5aa=""><!----></defs><g data-v-fde0c5aa="" id="3c0260d0-0070-4e1d-89f2-a43445832c8a" fill="#000000" transform="matrix(3.9552046559973286,0,0,3.9552046559973286,111.04699632338831,113.94702422166893)"><path d="M1.44 14L6.16 14C8.06 14 8.96 12.64 8.96 11.07C8.96 9.53 8.04 8.88 7.63 8.69C7.50 8.64 7.52 8.53 7.60 8.46C7.85 8.25 8.33 7.73 8.33 6.75C8.33 5.15 7.15 4.20 5.47 4.20L1.27 4.20C0.90 4.20 0.70 4.23 0.70 4.47C0.70 4.77 1.27 4.61 1.27 5.31L1.27 12.75C1.27 13.58 0.76 13.38 0.76 13.73C0.76 14 1.20 14 1.44 14ZM3.18 8.29C2.94 8.29 2.87 8.18 2.87 7.97L2.90 5.92C2.90 5.67 3.04 5.63 3.23 5.63L5.47 5.63C6.19 5.63 6.78 6.06 6.78 6.90C6.78 7.74 6.16 8.29 5.54 8.29ZM3.14 12.63C2.87 12.63 2.84 12.52 2.84 12.29L2.86 9.90C2.86 9.70 3.00 9.67 3.11 9.67L5.64 9.67C6.47 9.67 7.38 9.95 7.38 11.07C7.38 12.05 6.72 12.63 5.82 12.63ZM10.58 14L16.25 14C16.38 14 16.49 13.99 16.60 13.80L17.19 12.87C17.26 12.75 17.30 12.47 17.19 12.40C16.91 12.24 16.81 12.60 16.25 12.60L12.49 12.60C12.32 12.60 12.21 12.57 12.21 12.26L12.21 5.24C12.21 4.61 12.67 4.66 12.67 4.44C12.67 4.23 12.46 4.20 12.15 4.20L10.58 4.20C10.28 4.20 10.11 4.27 10.11 4.44C10.11 4.72 10.61 4.47 10.61 5.31L10.61 12.92C10.61 13.58 10.08 13.41 10.08 13.78C10.08 13.99 10.26 14 10.58 14ZM17.26 9.16C17.26 12.52 19.71 14.20 22.19 14.24C24.74 14.28 27.31 12.59 27.31 9.16C27.31 5.71 24.85 4.02 22.36 3.99C19.82 3.98 17.26 5.71 17.26 9.16ZM18.94 9.16C18.94 6.69 20.65 5.47 22.34 5.49C24.01 5.50 25.68 6.72 25.68 9.16C25.68 11.58 23.95 12.78 22.25 12.75C20.58 12.73 18.94 11.52 18.94 9.16ZM33.17 14.20C36.02 14.20 37.11 12.56 37.27 12.15C37.31 12.04 37.31 11.94 37.31 11.84L37.31 10.26C37.31 9.56 37.66 9.81 37.66 9.52C37.66 9.28 37.44 9.28 37.25 9.28L35.84 9.28C35.56 9.28 35.41 9.30 35.41 9.53C35.41 9.83 35.78 9.55 35.78 10.36L35.78 11.34C35.78 11.52 35.77 11.56 35.71 11.68C35.46 12.17 34.47 12.84 33.18 12.84C31.40 12.84 29.78 11.47 29.78 9.11C29.78 6.79 31.42 5.40 33.17 5.40C34.65 5.40 35.20 5.74 35.80 6.15C36.41 6.57 36.18 6.80 36.36 6.93C36.53 7.06 36.68 6.89 36.82 6.66L37.44 5.74C37.53 5.59 37.69 5.35 37.52 5.24C37.27 5.07 37.17 5.36 36.65 5.05C36.44 4.93 35.34 3.99 33.17 3.99C30.04 3.99 28.15 6.26 28.15 9.11C28.15 11.79 29.93 14.20 33.17 14.20Z"></path></g><defs data-v-fde0c5aa=""><linearGradient data-v-fde0c5aa="" gradientTransform="rotate(25)" id="70475710-941c-49a6-81ac-dd203bdf9b89" x1="0%" y1="0%" x2="100%" y2="0%"><stop data-v-fde0c5aa="" offset="0%" stop-color="#326D8A" stop-opacity="1"></stop><stop data-v-fde0c5aa="" offset="100%" stop-color="#D468D7" stop-opacity="1"></stop></linearGradient></defs><g data-v-fde0c5aa="" id="5dba7ac1-7373-4ccf-965f-d7e0dc9c2cc6" stroke="none" fill="url(#70475710-941c-49a6-81ac-dd203bdf9b89)" transform="matrix(3.800977470964796,0,0,3.800977470964796,40,119.59218023228163)"><path d="M15.9 6.7c.1-.2.1-.5 0-.7l-.7-.7c-.1-.1-.2-.1-.4-.1-.1 0-.3 0-.4.1L9 10.6V12h1.6l5.3-5.3zM3 3h10v1H3zM3 6h9.3l.7-.7V5H3zM3 11h5v1H3zM3 8h7.3l1-1H3z"></path><path d="M15 9v4c0 1.1-.9 2-2 2H3c-1.1 0-2-.9-2-2V3c0-1.1.9-2 2-2h10c1.1 0 2 .9 2 2v1.2c.3 0 .6.2.9.4l.1.1V3c0-1.7-1.3-3-3-3H3C1.3 0 0 1.3 0 3v10c0 1.7 1.3 3 3 3h10c1.7 0 3-1.3 3-3V8l-1 1z"></path><path d="M3 10h5.3l.1-.1.9-.9H3z"></path></g><!----></svg>